# xmcd
#
# Track frame offsets:
#	150
#	17830
#	31065
#	45798
#	60806
#	80485
#	96670
#	113836
#	128719
#	145558
#	161258
#	179337
# Disc length: 2619 seconds
# Revision: 1
# Processed by: cddbd v1.5.2PL0 Copyright (c) Steve Scherf et al.
#
# Submitted via: libkcddb 0.31
#
DISCID=870a390c
DTITLE=Reg Keating - Irish Country Music
DYEAR=2007
DGENRE=
TTITLE0=Danny Boy
TTITLE1=Raglan Road
TTITLE2=The Curragh of Kildare
TTITLE3=The Harp That Once
TTITLE4=The Last Rose of Summer
TTITLE5=The Sally Gardens
TTITLE6=Easy and Slow
TTITLE7=My Singing Bird
TTITLE8=Rose of Tralee
TTITLE9=Carrigfergus
TTITLE10=The Isle of Innisfree
TTITLE11=Galway Bay
EXTD=Irish Country Music Collection CD2
EXTT0=
EXTT1=
EXTT2=
EXTT3=
EXTT4=
EXTT5=
EXTT6=
EXTT7=
EXTT8=
EXTT9=
EXTT10=
EXTT11=
PLAYORDER=
